:SAMPLES-PER-SECOND 30
:FULLY-SPECIFIED
:DEGREES
262
root  14.7132 40.3287 -6.98394 0.213409 -83.3776 9.72226
RightUpLeg  -15.0774 -13.0813 -11.9335
RightLeg  0.958176 -18.5111 4.79972
RightFoot  9.60523 -0.734436 4.32912
RightToes  0.00048216 0.542163 -0.142577
Spine  28.1204 -2.48976 -4.05825
Spine1  19.7112 -1.90898 -5.40448
HEad  -0.174403 -4.0403 -12.1076
LeftShoulder1  10.5878 -17.9681 -42.8448
LeftArm  5.60825 -45.1469 -26.5577
LeftForeArm  25.8159 -22.6218 -3.76743
LeftHand  -0.25398 0.0180481 5.50724
RightShoulder  6.68744 12.2097 36.5554
RightArm  2.39247 26.8776 44.5267
RightForeArm  21.2462 14.4546 6.31899
RightHand  -1.18182 5.75571 -12.6577
LeftUpLeg  -18.8909 4.57256 4.7748
LeftLeg  0.243751 4.56523 -3.716
LeftFoot  9.37657 0.207583 -1.44892
LeftToes  1.06241e-005 4.65855e-005 -8.18508e-006
263
root  14.9334 40.2753 -6.88227 -0.684341 -83.5483 11.4357
RightUpLeg  -16.3021 -13.3165 -12.0685
RightLeg  0.853641 -18.3334 4.89731
RightFoot  9.9828 -0.755446 4.37628
RightToes  0.00048216 0.542163 -0.142577
Spine  28.9082 -2.34053 -3.97845
Spine1  20.9407 -1.99848 -4.65579
HEad  1.26074 -4.5241 -11.4113
LeftShoulder1  10.3389 -17.9351 -41.8356
LeftArm  5.57233 -48.3751 -27.5364
LeftForeArm  26.8737 -24.7237 -3.83937
LeftHand  -0.25398 0.0180481 5.50724
RightShoulder  6.51418 12.1244 35.7006
RightArm  0.37709 29.5854 45.2517
RightForeArm  21.2316 14.3405 6.12141
RightHand  -1.17715 5.81671 -12.5436
LeftUpLeg  -20.0232 4.40154 4.49936
LeftLeg  0.136074 5.0293 -3.86163
LeftFoot  9.59565 0.203013 -1.41608
LeftToes  1.06241e-005 4.65855e-005 -8.18508e-006
264
root  15.1294 40.2271 -6.79327 -1.9731 -83.8348 13.5086
RightUpLeg  -17.4525 -13.496 -12.1648
RightLeg  0.652879 -18.0949 5.00247
RightFoot  10.4097 -0.76349 4.34533
RightToes  0.00048216 0.542163 -0.142577
Spine  29.7746 -2.2409 -3.89747
Spine1  21.8935 -2.11674 -4.03974
HEad  2.55557 -4.89982 -10.8031
LeftShoulder1  10.1096 -17.8243 -41.0641
LeftArm  5.18801 -51.1295 -27.8705
LeftForeArm  27.7125 -26.0761 -4.11856
LeftHand  -0.25398 0.0180481 5.50724
RightShoulder  6.36539 12.0666 34.9147
RightArm  0.135339 32.0826 46.2622
RightForeArm  19.8353 14.9732 5.88959
RightHand  -1.27395 6.22807 -13.0744
LeftUpLeg  -21.0341 4.24961 4.26593
LeftLeg  -0.0298274 5.56036 -4.00412
LeftFoot  9.81206 0.19685 -1.37557
LeftToes  1.06241e-005 4.65855e-005 -8.18508e-006
265
root  15.2942 40.1877 -6.72021 -3.84976 -84.1581 16.1109
RightUpLeg  -18.4328 -13.5977 -12.2542
RightLeg  0.279525 -17.8684 5.09955
RightFoot  10.8731 -0.801223 4.46081
RightToes  0.00048216 0.542163 -0.142577
Spine  30.7187 -2.19634 -3.87764
Spine1  22.5641 -2.30341 -3.50079
HEad  3.65847 -5.01382 -10.341
LeftShoulder1  9.89273 -17.6404 -40.488
LeftArm  5.15162 -53.3289 -27.6637
LeftForeArm  27.675 -26.6199 -4.2381
LeftHand  -0.25398 0.0180481 5.50724
RightShoulder  6.28325 12.0355 34.474
RightArm  1.55507 34.6127 47.2538
RightForeArm  17.8883 15.779 5.78606
RightHand  -1.46451 7.02205 -14.0564
LeftUpLeg  -21.8875 4.12227 4.05201
LeftLeg  -0.279528 6.09393 -4.17337
LeftFoot  10.0941 0.169884 -1.22391
LeftToes  1.06241e-005 4.65855e-005 -8.18508e-006
266
root  15.4239 40.1559 -6.6628 -6.33034 -84.4907 19.3434
RightUpLeg  -19.3812 -13.6639 -12.3293
RightLeg  -0.133043 -17.6743 5.1725
RightFoot  11.2932 -0.855909 4.66397
RightToes  0.00048216 0.542163 -0.142577
Spine  31.5106 -2.15375 -3.87712
Spine1  23.054 -2.48939 -2.9945
HEad  4.61205 -4.9865 -9.99789
LeftShoulder1  9.67748 -17.4847 -39.8473
LeftArm  5.39875 -54.9551 -27.511
LeftForeArm  27.1722 -26.1639 -4.16166
LeftHand  -0.25398 0.0180481 5.50724
RightShoulder  6.24412 12.0008 34.3141
RightArm  3.94932 37.0719 48.22
RightForeArm  16.4357 16.6814 5.66755
RightHand  -1.56341 7.55951 -14.3813
LeftUpLeg  -22.6704 3.97087 3.84237
LeftLeg  -0.623536 6.68737 -4.32726
LeftFoot  10.4338 0.132696 -1.02176
LeftToes  1.06241e-005 4.65855e-005 -8.18508e-006
267
root  15.5196 40.129 -6.61553 -8.98085 -84.8412 22.773
RightUpLeg  -20.3618 -13.6907 -12.3402
RightLeg  -0.469673 -17.4988 5.20924
RightFoot  11.6846 -0.881329 4.72121
RightToes  0.00048216 0.542163 -0.142577
Spine  32.0909 -2.09745 -3.78819
Spine1  23.3674 -2.61593 -2.51787
HEad  5.42649 -4.9645 -9.7387
LeftShoulder1  9.48411 -17.4038 -39.1381
LeftArm  6.11493 -56.0412 -27.8614
LeftForeArm  26.3709 -24.6167 -3.87647
LeftHand  -0.25398 0.0180481 5.50724
RightShoulder  6.20171 11.9705 34.1211
RightArm  6.27853 39.1422 49.4145
RightForeArm  15.763 17.7294 5.39544
RightHand  -1.49781 7.54116 -13.8164
LeftUpLeg  -23.4438 3.80523 3.67346
LeftLeg  -0.941061 7.32349 -4.41883
LeftFoot  10.7233 0.10458 -0.872909
LeftToes  1.06241e-005 4.65855e-005 -8.18508e-006
268
root  15.5875 40.1056 -6.57484 -11.306 -85.1957 25.7875
RightUpLeg  -21.231 -13.6493 -12.2786
RightLeg  -0.77006 -17.3305 5.22655
RightFoot  12.0943 -0.875465 4.61878
RightToes  0.00048216 0.542163 -0.142577
Spine  32.6464 -2.07726 -3.56105
Spine1  23.4265 -2.70968 -2.10326
HEad  6.05373 -4.98002 -9.56367
LeftShoulder1  9.35854 -17.3668 -38.6402
LeftArm  6.62342 -56.655 -28.3713
LeftForeArm  25.9783 -22.0835 -3.89401
LeftHand  -0.25398 0.0180481 5.50724
RightShoulder  6.14838 11.9748 33.7685
RightArm  7.95967 40.7358 50.9345
RightForeArm  15.4258 18.6741 5.08939
RightHand  -1.4056 7.3533 -13.1843
LeftUpLeg  -24.1649 3.69256 3.58156
LeftLeg  -1.08714 7.87968 -4.45821
LeftFoot  10.894 0.0844982 -0.769297
LeftToes  1.06241e-005 4.65855e-005 -8.18508e-006
269
root  15.6312 40.0868 -6.54445 -13.6865 -85.5111 28.7016
RightUpLeg  -21.8968 -13.5944 -12.2187
RightLeg  -1.03612 -17.1437 5.24341
RightFoot  12.4475 -0.871948 4.53201
RightToes  0.00048216 0.542163 -0.142577
Spine  33.2201 -2.1253 -3.2704
Spine1  23.3234 -2.8074 -1.80753
HEad  6.5031 -5.02429 -9.41647
LeftShoulder1  9.31054 -17.3487 -38.4571
LeftArm  4.32484 -56.9434 -28.2938
LeftForeArm  28.3108 -18.5775 -5.31833
LeftHand  -0.25398 0.0180481 5.50724
RightShoulder  6.11052 12.0046 33.4499
RightArm  9.27708 42.0764 52.6079
RightForeArm  14.845 19.1976 4.94857
RightHand  -1.41103 7.40175 -13.1836
LeftUpLeg  -24.7449 3.62406 3.52587
LeftLeg  -1.11937 8.33238 -4.48239
LeftFoot  11.0051 0.0628989 -0.65955
LeftToes  1.06241e-005 4.65855e-005 -8.18508e-006
270
root  15.6487 40.0737 -6.52937 -17.2152 -85.7703 32.6511
RightUpLeg  -22.4582 -13.6154 -12.2233
RightLeg  -1.13922 -16.8797 5.24161
RightFoot  12.6301 -0.867394 4.49585
RightToes  0.00048216 0.542163 -0.142577
Spine  33.6157 -2.1944 -3.05003
Spine1  23.2803 -2.89638 -1.63745
HEad  6.81203 -5.07688 -9.1988
LeftShoulder1  9.30666 -17.3613 -38.4131
LeftArm  -0.602287 -56.9775 -27.6053
LeftForeArm  32.9156 -14.1535 -7.47984
LeftHand  -0.25398 0.0180481 5.50724
RightShoulder  6.09683 12.0265 33.3067
RightArm  10.6446 43.3349 54.2856
RightForeArm  14.1555 19.2493 4.99237
RightHand  -1.50215 7.69503 -13.7031
LeftUpLeg  -25.1359 3.53713 3.44187
LeftLeg  -1.2064 8.78756 -4.51802
LeftFoot  11.1152 0.0424526 -0.556645
LeftToes  1.06241e-005 4.65855e-005 -8.18508e-006
271
root  15.6365 40.0679 -6.52741 -21.9504 -86.0087 37.7054
RightUpLeg  -22.9481 -13.6811 -12.2508
RightLeg  -1.06491 -16.5235 5.20423
RightFoot  12.6691 -0.850323 4.40882
RightToes  0.00048216 0.542163 -0.142577
Spine  33.7743 -2.2207 -2.93858
Spine1  23.3275 -2.95242 -1.50616
HEad  6.9503 -5.09515 -8.92029
LeftShoulder1  9.33097 -17.4401 -38.3628
LeftArm  -5.74739 -56.5609 -26.9084
LeftForeArm  37.6333 -9.40791 -8.99349
LeftHand  -0.25398 0.0180481 5.50724
RightShoulder  6.08146 12.0392 33.1763
RightArm  11.9397 44.4221 55.9566
RightForeArm  14.1888 18.9746 5.12155
RightHand  -1.58495 7.99749 -14.1215
LeftUpLeg  -25.3366 3.4726 3.35674
LeftLeg  -1.33616 9.25511 -4.57876
LeftFoot  11.1595 0.0302513 -0.495532
LeftToes  1.06241e-005 4.65855e-005 -8.18508e-006
272
root  15.5947 40.0712 -6.53219 -26.4273 -86.2695 42.3206
RightUpLeg  -23.1826 -13.6646 -12.2189
RightLeg  -1.02435 -16.1673 5.16221
RightFoot  12.6826 -0.826759 4.29611
RightToes  0.00048216 0.542163 -0.142577
Spine  33.891 -2.20879 -2.82914
Spine1  23.2907 -2.97048 -1.34391
HEad  6.84923 -5.09163 -8.67269
LeftShoulder1  9.4043 -17.6134 -38.3433
LeftArm  -8.40938 -55.4175 -26.6807
LeftForeArm  40.4463 -5.54065 -9.31086
LeftHand  -0.25398 0.0180481 5.50724
RightShoulder  6.036 12.0511 32.8547
RightArm  12.9328 45.1879 57.5286
RightForeArm  15.2146 18.5198 5.27389
RightHand  -1.57918 8.08348 -13.986
LeftUpLeg  -25.3399 3.53996 3.36199
LeftLeg  -1.35199 9.59595 -4.65559
LeftFoot  11.0586 0.0258803 -0.47272
LeftToes  1.06241e-005 4.65855e-005 -8.18508e-006
273
root  15.5253 40.0842 -6.54257 -29.9578 -86.5433 45.8031
RightUpLeg  -23.0794 -13.5374 -12.1332
RightLeg  -1.14514 -15.8938 5.14204
RightFoot  12.7012 -0.821773 4.26992
RightToes  0.00048216 0.542163 -0.142577
Spine  34.022 -2.19462 -2.64015
Spine1  23.1084 -2.94651 -1.19217
HEad  6.44898 -5.13781 -8.44204
LeftShoulder1  9.54999 -17.8476 -38.5266
LeftArm  -8.64108 -53.5887 -26.6731
LeftForeArm  41.6385 -3.09696 -9.12617
LeftHand  -0.25398 0.0180481 5.50724
RightShoulder  5.9652 12.0371 32.434
RightArm  13.7995 45.5927 58.7235
RightForeArm  16.3346 18.0662 5.43906
RightHand  -1.49987 7.92401 -13.4627
LeftUpLeg  -25.1521 3.72032 3.46164
LeftLeg  -1.25982 9.77121 -4.72514
LeftFoot  10.873 0.0256802 -0.467805
LeftToes  1.06241e-005 4.65855e-005 -8.18508e-006
